<?xml version="1.0" encoding="utf-8"?>
<!-- Generator: Adobe Illustrator 18.1.1, SVG Export Plug-In . SVG Version: 6.00 Build 0)  -->
<svg version="1.1" id="Слой_1" xmlns="http://www.w3.org/2000/svg" xmlns:xlink="http://www.w3.org/1999/xlink" x="0px" y="0px"
	 viewBox="0 0 272.9 252" enable-background="new 0 0 272.9 252" xml:space="preserve">
<path fill="none" stroke="#FFFFFF" stroke-width="6" stroke-linecap="round" stroke-miterlimit="10" stroke-dasharray="0,13" d="
	M-84-1169C93.2-462.5,241.1-288.6,352-289c154-0.5,219.8-337.3,388-336c234.8,1.8,297.8,659.6,516,692
	c157.7,23.4,401.9-279,796-1388"/>
<g>
	<path fill="#FFFFFF" d="M143.2,4.8c5.8,1.1,11.7,1.9,17.4,3.5c38.7,10.8,65.3,44.3,67.2,84.4c0.1,1.1,0.1,2.2,0.2,3.7
		c2.2,0.4,4.4,0.7,6.6,1.2c17.3,4.1,29.6,19.4,29.8,37.3c0.3,20.6-8.4,34.9-25.1,41.3c-10.2,3.9-20.9,2.8-31.4,2.2
		c-4.7-0.3-7.3-4-7.3-8.8c-0.1-21.3-0.1-42.7,0-64c0-5.5,3.7-8.8,9.2-9.1c2.7-0.1,5.4,0,9,0c-0.6-26-10.1-47.5-30.1-63.4
		C160.8,10.9,130,7.6,98.5,23.7C69.7,38.4,55.6,63.4,54,96.4c3.3,0,6.1-0.1,8.9,0c5.8,0.2,9.4,3.6,9.5,9.4c0.1,21.2,0.1,42.3,0,63.5
		c0,6.2-3.1,8.6-12,9.9c8.2,11.5,13.6,24.5,24.7,33.5c9.2,7.4,19.7,11.1,31.4,11.7c3.1,0.1,4.7-0.7,6.2-3.7
		c3.9-8.1,12.7-11.7,21-9.3c8.4,2.4,13.7,10.1,13.2,18.9c-0.5,8.3-7,15.3-15.4,16.7c-7.5,1.2-15.1-2.5-18.7-9.8
		c-1.3-2.6-2.7-3.7-5.7-3.8c-23.1-0.8-40.6-11.3-52.7-31c-4.3-7-8.6-13.9-13.1-20.7c-0.9-1.4-2.8-2.9-4.3-2.9
		c-19.1-0.4-34.8-14.5-37.8-31.8c0-0.3-0.4-0.5-0.6-0.7c0-5.8,0-11.5,0-17.3c0.4-1.2,0.9-2.3,1.2-3.5c4.3-14.3,13.6-23.6,28-27.7
		c2.3-0.6,4.7-0.9,7.1-1.4c0.1-1.3,0.2-2.4,0.3-3.5c1.8-40.2,28.4-73.7,67.3-84.6c5.7-1.6,11.6-2.3,17.4-3.5
		C134.2,4.8,138.7,4.8,143.2,4.8z M63.1,105.6c-5.5,0-10.6,0-15.7,0c-15,0.1-27.3,10.5-29.4,24.6c-2.8,18.4,4.9,33.6,20.4,37.6
		c7.8,2,16.3,1.5,24.8,2.2C63.1,148,63.1,127.2,63.1,105.6z M209.7,169.5c5.7,0,11,0.1,16.3,0c14.4-0.3,26.5-10.6,28.8-24.3
		c3-17.6-4.2-32.1-18.5-37.6c-8.7-3.3-17.6-1.6-26.6-1.8C209.7,127.2,209.7,148,209.7,169.5z M147.9,228.9c0-4.9-4.4-9.2-9.3-9.1
		c-5,0.1-9.1,4.5-9,9.4c0.1,4.8,4.1,8.7,9,8.8C143.7,238,147.9,233.8,147.9,228.9z"/>
	<path fill="#FFFFFF" d="M138.3,27.8c2.7,0.3,7,0.7,11.2,1.5c2.9,0.5,5.4,2.2,4.6,5.5c-0.7,3.1-3.2,4.1-6.4,3.5
		c-21.2-3.9-39.2,2.3-54,17.8c-2.1,2.2-4.4,3.6-7,1.2c-2.8-2.5-1.8-5.1,0.5-7.5C100.6,35.3,117.1,28.2,138.3,27.8z"/>
	<path fill="#FFFFFF" d="M176.7,45c-1.1,0.7-2.6,2.5-4.4,2.8c-3.1,0.5-8.9-4.3-8.1-6.6c0.6-1.8,2.7-4,4.5-4.3
		C171.8,36.3,176.9,41.2,176.7,45z"/>
</g>
</svg>
