<?xml version="1.0" encoding="utf-8"?>
<!-- Generator: Adobe Illustrator 18.1.1, SVG Export Plug-In . SVG Version: 6.00 Build 0)  -->
<svg version="1.1" id="Слой_1" xmlns="http://www.w3.org/2000/svg" xmlns:xlink="http://www.w3.org/1999/xlink" x="0px" y="0px"
	 viewBox="0 0 272.9 252" enable-background="new 0 0 272.9 252" xml:space="preserve">
<path fill="none" stroke="#FFFFFF" stroke-width="6" stroke-linecap="round" stroke-miterlimit="10" stroke-dasharray="0,13" d="
	M-84-1169C93.2-462.5,241.1-288.6,352-289c154-0.5,219.8-337.3,388-336c234.8,1.8,297.8,659.6,516,692
	c157.7,23.4,401.9-279,796-1388"/>
<path d="M146.9,251c-7,0-14,0-21,0c-1.3-0.3-2.6-0.7-3.9-0.9c-48.3-7.1-81.9-33.2-100-78.4c-4.2-10.3-5.5-21.8-8.1-32.7
	c0-7,0-14,0-21c0.3-1.4,0.7-2.9,0.9-4.3C22.1,65.4,48.4,32,93.6,14c10.2-4.1,21.5-5.4,32.3-8c7,0,14,0,21,0c1.3,0.3,2.6,0.7,3.9,0.9
	c48.3,7,81.8,33.2,100,78.4c4.2,10.3,5.5,21.8,8.1,32.7c0,7,0,14,0,21c-0.3,1.4-0.7,2.9-0.9,4.3c-7.3,48.2-33.5,81.7-78.8,99.7
	C169,247.1,157.7,248.4,146.9,251z M136.5,241.2c62.1,0,112.5-50.4,112.6-112.5c0-62.4-50.4-112.9-112.7-112.8
	c-62.1,0-112.5,50.4-112.6,112.5C23.7,190.7,74.2,241.2,136.5,241.2z"/>
<path d="M119.3,148c0-14-0.1-28,0.1-41.9c0.1-8.2,4.8-14.3,12-16.6c6.9-2.1,14.7,0.1,18.5,6.2c2,3.2,3.4,7.4,3.4,11.1
	c0.3,27.6,0.2,55.2,0.1,82.9c0,10.6-7.6,18.2-17.2,18.1c-9.7-0.1-16.9-7.8-16.9-18.4C119.2,175.6,119.3,161.8,119.3,148z
	 M143.8,147.9c0-13.3,0-26.6,0-39.9c0-5.9-2.7-9.4-7.2-9.5c-4.7-0.1-7.5,3.5-7.5,9.7c0,26.8,0,53.5,0,80.3c0,6,2.6,9.4,7.2,9.5
	c4.7,0.1,7.5-3.4,7.5-9.7C143.8,174.9,143.8,161.4,143.8,147.9z"/>
<path d="M136.4,83.3c-9.4,0-17.1-7.8-17-17.2c0.1-9.2,7.8-16.8,16.9-16.9c9.3-0.1,17.2,7.7,17.3,17.1
	C153.5,75.6,145.8,83.3,136.4,83.3z M136.5,73.6c3.8,0,7.3-3.5,7.3-7.4c0-3.9-3.4-7.3-7.4-7.2c-3.9,0-7.3,3.4-7.3,7.3
	C129.1,70.1,132.7,73.6,136.5,73.6z"/>
<path d="M239,153c-3.5,13.3-8.2,24.6-15.6,34.6c-1,1.3-5,1.8-6.3,0.9c-1.3-0.9-2-4.5-1.3-6.3c4.1-10.1,8.6-20,13.4-29.8
	c0.8-1.7,3.8-3.5,5.6-3.4C236.5,149.2,238,151.9,239,153z"/>
<path d="M241.8,130.9c0.1,3.5-0.8,6.7-4.9,6.7c-4.4,0-5.1-3.4-5-7.1c0.1-3.5,0.8-6.7,4.9-6.7C241.4,123.8,242.1,127.2,241.8,130.9z"
	/>
</svg>
