<?xml version="1.0" encoding="utf-8"?>
<!-- Generator: Adobe Illustrator 18.1.1, SVG Export Plug-In . SVG Version: 6.00 Build 0)  -->
<svg version="1.1" id="Слой_1" xmlns="http://www.w3.org/2000/svg" xmlns:xlink="http://www.w3.org/1999/xlink" x="0px" y="0px"
	 viewBox="0 0 272.9 252" enable-background="new 0 0 272.9 252" xml:space="preserve">
<path fill="none" stroke="#FFFFFF" stroke-width="6" stroke-linecap="round" stroke-miterlimit="10" stroke-dasharray="0,13" d="
	M-84-1169C93.2-462.5,241.1-288.6,352-289c154-0.5,219.8-337.3,388-336c234.8,1.8,297.8,659.6,516,692
	c157.7,23.4,401.9-279,796-1388"/>
<g>
	<path fill="#FFFFFF" d="M146.9,248c-7,0-14,0-21,0c-1.3-0.3-2.6-0.7-3.9-0.9c-48.3-7.1-81.9-33.2-100-78.4
		c-4.2-10.3-5.5-21.8-8.1-32.7c0-7,0-14,0-21c0.3-1.4,0.7-2.9,0.9-4.3C22.1,62.4,48.4,29,93.6,11c10.2-4.1,21.5-5.4,32.3-8
		c7,0,14,0,21,0c1.3,0.3,2.6,0.7,3.9,0.9c48.3,7,81.8,33.2,100,78.4c4.2,10.3,5.5,21.8,8.1,32.7c0,7,0,14,0,21
		c-0.3,1.4-0.7,2.9-0.9,4.3c-7.3,48.2-33.5,81.7-78.8,99.7C169,244.1,157.7,245.4,146.9,248z M136.5,238.2
		c62.1,0,112.5-50.4,112.6-112.5c0-62.4-50.4-112.9-112.7-112.8c-62.1,0-112.5,50.4-112.6,112.5C23.7,187.7,74.2,238.2,136.5,238.2z
		"/>
	<path fill="#FFFFFF" d="M119.3,145c0-14-0.1-28,0.1-41.9c0.1-8.2,4.8-14.3,12-16.6c6.9-2.1,14.7,0.1,18.5,6.2
		c2,3.2,3.4,7.4,3.4,11.1c0.3,27.6,0.2,55.2,0.1,82.9c0,10.6-7.6,18.2-17.2,18.1c-9.7-0.1-16.9-7.8-16.9-18.4
		C119.2,172.6,119.3,158.8,119.3,145z M143.8,144.9c0-13.3,0-26.6,0-39.9c0-5.9-2.7-9.4-7.2-9.5c-4.7-0.1-7.5,3.5-7.5,9.7
		c0,26.8,0,53.5,0,80.3c0,6,2.6,9.4,7.2,9.5c4.7,0.1,7.5-3.4,7.5-9.7C143.8,171.9,143.8,158.4,143.8,144.9z"/>
	<path fill="#FFFFFF" d="M136.4,80.3c-9.4,0-17.1-7.8-17-17.2c0.1-9.2,7.8-16.8,16.9-16.9c9.3-0.1,17.2,7.7,17.3,17.1
		C153.5,72.6,145.8,80.3,136.4,80.3z M136.5,70.6c3.8,0,7.3-3.5,7.3-7.4c0-3.9-3.4-7.3-7.4-7.2c-3.9,0-7.3,3.4-7.3,7.3
		C129.1,67.1,132.7,70.6,136.5,70.6z"/>
	<path fill="#FFFFFF" d="M239,150c-3.5,13.3-8.2,24.6-15.6,34.6c-1,1.3-5,1.8-6.3,0.9c-1.3-0.9-2-4.5-1.3-6.3
		c4.1-10.1,8.6-20,13.4-29.8c0.8-1.7,3.8-3.5,5.6-3.4C236.5,146.2,238,148.9,239,150z"/>
	<path fill="#FFFFFF" d="M241.8,127.9c0.1,3.5-0.8,6.7-4.9,6.7c-4.4,0-5.1-3.4-5-7.1c0.1-3.5,0.8-6.7,4.9-6.7
		C241.4,120.8,242.1,124.2,241.8,127.9z"/>
</g>
</svg>
