<svg id="Слой_1" data-name="Слой 1" xmlns="http://www.w3.org/2000/svg" viewBox="0 0 45.64 45.76"><defs><style>.cls-1{fill:#b3101c;}</style></defs><title>Info</title><path class="cls-1" d="M2.3,24.2c.12-.85.19-1.71.35-2.55,1.59-8.09,6.14-14,13.74-17.07,8.21-3.37,16-2.2,23.05,3.3A21.68,21.68,0,0,1,47.78,23,22.76,22.76,0,0,1,32.51,47.24a21.89,21.89,0,0,1-5.57,1.14,3.14,3.14,0,0,0-.39.08H23.7l-.3-.07c-1-.15-2.09-.25-3.12-.46A22.83,22.83,0,0,1,2.65,29.65c-.14-.86-.24-1.73-.36-2.6ZM25.13,46.65a21,21,0,1,0-21-21A21.07,21.07,0,0,0,25.13,46.65Z" transform="translate(-2.3 -2.7)"/><path class="cls-1" d="M21.94,29.32c0-2.6,0-5.2,0-7.8a3.19,3.19,0,1,1,6.38,0c0,2,0,4,0,5.93q0,4.79,0,9.58a3.19,3.19,0,1,1-6.38.07C21.92,34.52,21.94,31.92,21.94,29.32Zm4.55.06q0-3.34,0-6.69c0-.48,0-1,0-1.43A1.35,1.35,0,0,0,25.12,20a1.37,1.37,0,0,0-1.34,1.24c0,.16,0,.33,0,.49q0,7.55,0,15.11c0,.15,0,.3,0,.45a1.35,1.35,0,0,0,2,1.1,1.32,1.32,0,0,0,.72-1.24Q26.48,33.28,26.48,29.38Z" transform="translate(-2.3 -2.7)"/><path class="cls-1" d="M25.12,17.22a3.19,3.19,0,1,1,3.2-3.17A3.22,3.22,0,0,1,25.12,17.22ZM26.48,14a1.35,1.35,0,1,0-1.36,1.35A1.33,1.33,0,0,0,26.48,14Z" transform="translate(-2.3 -2.7)"/><path class="cls-1" d="M39.74,36a2.65,2.65,0,0,1,.21-.48,18,18,0,0,0,2.42-5.37.92.92,0,1,1,1.76.47,19.34,19.34,0,0,1-2.68,5.93.9.9,0,0,1-1.07.42A.93.93,0,0,1,39.74,36Z" transform="translate(-2.3 -2.7)"/><path class="cls-1" d="M43,26.06a4.87,4.87,0,0,1,0-.53.88.88,0,0,1,.91-.8.86.86,0,0,1,.88.82,7.31,7.31,0,0,1,0,.93.9.9,0,0,1-1.8,0c0-.13,0-.27,0-.4Z" transform="translate(-2.3 -2.7)"/></svg>