<?xml version="1.0" encoding="utf-8"?>
<!-- Generator: Adobe Illustrator 21.1.0, SVG Export Plug-In . SVG Version: 6.00 Build 0)  -->
<svg version="1.1" xmlns="http://www.w3.org/2000/svg" xmlns:xlink="http://www.w3.org/1999/xlink" x="0px" y="0px"
	 viewBox="0 0 50 50" style="enable-background:new 0 0 50 50;" xml:space="preserve">
<style type="text/css">
	.st0{display:none;}
	.st1{display:inline;}
	.st2{fill:#B3101C;}
</style>
<g id="Слой_1" class="st0">
	<g class="st1">
		<path class="st2" d="M2.3,24.2c0.1-0.9,0.2-1.7,0.4-2.6c1.6-8.1,6.1-14,13.7-17.1c8.2-3.4,16-2.2,23.1,3.3
			c4.9,3.8,7.6,8.9,8.3,15.1c1.2,10.8-5,20.8-15.3,24.3c-1.8,0.6-3.7,1-5.6,1.1c-0.1,0-0.3,0.1-0.4,0.1c-1,0-1.9,0-2.9,0
			c-0.1,0-0.2-0.1-0.3-0.1c-1-0.2-2.1-0.3-3.1-0.5c-8.9-1.8-16.2-9.4-17.6-18.3c-0.1-0.9-0.2-1.7-0.4-2.6
			C2.3,26.1,2.3,25.2,2.3,24.2z M25.1,46.6c11.6,0,21-9.5,21-21c0-11.6-9.4-21-21-21c-11.6,0-21,9.4-21,21
			C4.1,37.2,13.6,46.6,25.1,46.6z"/>
		<path class="st2" d="M21.9,29.3c0-2.6,0-5.2,0-7.8c0-1.9,1.4-3.3,3.3-3.3c1.7,0,3.1,1.5,3.1,3.3c0,2,0,4,0,5.9c0,3.2,0,6.4,0,9.6
			c0,1.7-1.1,3.1-2.6,3.3c-2,0.3-3.7-1.1-3.7-3.2C21.9,34.5,21.9,31.9,21.9,29.3z M26.5,29.4c0-2.2,0-4.5,0-6.7c0-0.5,0-1,0-1.4
			c0-0.7-0.7-1.2-1.3-1.2c-0.7,0-1.3,0.6-1.3,1.2c0,0.2,0,0.3,0,0.5c0,5,0,10.1,0,15.1c0,0.1,0,0.3,0,0.4c0,0.5,0.2,0.8,0.6,1.1
			c0.4,0.3,0.9,0.3,1.4,0c0.5-0.3,0.7-0.7,0.7-1.2C26.5,34.6,26.5,32,26.5,29.4z"/>
		<path class="st2" d="M25.1,17.2c-1.7,0-3.2-1.5-3.2-3.2c0-1.7,1.5-3.2,3.2-3.2c1.7,0,3.2,1.5,3.2,3.2
			C28.3,15.8,26.8,17.2,25.1,17.2z M26.5,14c0-0.8-0.6-1.4-1.3-1.4c-0.8,0-1.4,0.6-1.4,1.3c0,0.8,0.6,1.4,1.3,1.4
			C25.9,15.4,26.5,14.8,26.5,14z"/>
		<path class="st2" d="M39.7,36c0-0.1,0.1-0.3,0.2-0.5c1.1-1.7,1.9-3.4,2.4-5.4c0.2-0.6,0.6-0.9,1.2-0.8c0.5,0.1,0.8,0.6,0.6,1.2
			c-0.6,2.1-1.5,4.1-2.7,5.9c-0.3,0.4-0.7,0.6-1.1,0.4C40,36.8,39.8,36.6,39.7,36z"/>
		<path class="st2" d="M43,26.1c0-0.2,0-0.4,0-0.5c0.1-0.5,0.4-0.8,0.9-0.8c0.5,0,0.8,0.3,0.9,0.8c0,0.3,0,0.6,0,0.9
			c0,0.5-0.4,0.9-0.9,0.9c-0.5,0-0.8-0.4-0.9-0.9C42.9,26.3,42.9,26.2,43,26.1C43,26.1,43,26.1,43,26.1z"/>
	</g>
</g>
<g id="Слой_2">
	<g>
		<path class="st2" d="M1.2,25.9c0.1-0.4,0.1-0.7,0.2-1C2,22.5,4,19.7,7.9,19.4c0.2-5.7,2.4-10.4,6.9-13.9c3.3-2.5,7.1-3.6,11.3-3.4
			c9,0.6,15.9,8.4,15.9,17.2c0.4,0.1,0.9,0.1,1.3,0.2c3.2,0.8,5.4,3.7,5.5,7c0,2-0.3,3.9-1.6,5.5c-1.4,1.8-3.3,2.7-5.5,2.8
			c-1,0-2,0-3.1,0c-1,0-1.7-0.7-1.7-1.8c0-4,0-8,0-12c0-1.1,0.7-1.8,1.7-1.8c0.5,0,1,0,1.7,0C40.2,14.2,38.2,10,34.2,7
			C29,3,23.3,2.6,17.6,5.8c-5.2,2.9-7.6,7.5-7.9,13.6c0.6,0,1.1,0,1.6,0c1.2,0,1.8,0.7,1.8,1.9c0,3.9,0,7.7,0,11.6
			c0,1.4-0.6,2-1.9,2c-0.1,0-0.2,0-0.3,0c1.4,2.2,2.5,4.6,4.5,6.4c1.9,1.6,4,2.3,6.4,2.3c0.3,0,0.4-0.2,0.5-0.4
			c0.5-1.3,1.8-2.2,3.2-2.2c1.4,0,2.7,0.9,3.1,2.3c0.6,1.7-0.2,3.7-1.9,4.4c-1.7,0.7-3.7-0.1-4.3-1.9c-0.1-0.4-0.3-0.5-0.7-0.5
			c-4.3-0.1-7.6-1.9-9.9-5.6c-0.9-1.5-1.8-2.9-2.7-4.4c-0.2-0.3-0.3-0.4-0.6-0.4c-3.6,0-6.5-2.6-7.1-6.3c0-0.1-0.1-0.2-0.1-0.3
			C1.2,27.5,1.2,26.7,1.2,25.9z M38.6,33.1c1.2,0,2.3,0.1,3.5,0c1.6-0.1,2.8-0.8,3.8-2.1c1.2-1.5,1.4-3.2,1.1-5
			c-0.2-2-1.3-3.4-3-4.3c-1.7-0.9-3.6-0.5-5.4-0.6C38.6,25.1,38.6,29.1,38.6,33.1z M11.4,21.1c-1.1,0-2.1,0-3.1,0
			c-1.6,0-2.9,0.6-4,1.8c-1.4,1.5-1.6,3.4-1.4,5.3c0.3,2.2,1.5,3.7,3.5,4.6c1.6,0.6,3.2,0.3,4.9,0.4C11.4,29.1,11.4,25.1,11.4,21.1z
			 M25.4,46.1c0.9,0,1.7-0.8,1.7-1.7c0-0.9-0.8-1.7-1.7-1.7c-0.9,0-1.7,0.8-1.7,1.7C23.7,45.3,24.5,46.1,25.4,46.1z"/>
		<path class="st2" d="M25,6.3c0.8,0.1,1.6,0.2,2.4,0.3c0.6,0.1,0.9,0.5,0.9,1c-0.1,0.5-0.6,0.8-1.2,0.7c-3.5-0.7-6.6,0.2-9.3,2.6
			c-0.3,0.3-0.6,0.6-0.9,0.9c-0.4,0.4-0.9,0.5-1.2,0.1c-0.4-0.3-0.4-0.8,0-1.3c1.8-2.1,4.1-3.5,6.9-4C23.4,6.5,24.2,6.4,25,6.3z"/>
		<path class="st2" d="M31,8c0.5,0.2,1,0.4,1.3,0.9c0.2,0.3,0.1,0.6-0.1,0.9c-0.2,0.3-0.6,0.4-0.9,0.2c-0.4-0.2-0.7-0.4-1-0.6
			c-0.3-0.2-0.3-0.6-0.2-0.9C30.3,8.2,30.6,8,31,8z"/>
	</g>
</g>
<g id="Слой_3" class="st0">
	<g class="st1">
		<path class="st2" d="M47.6,26.2c-0.1,0.8-0.2,1.7-0.3,2.5c-1.7,8.6-6.7,14.6-15,17.5C20,50.5,6.8,43.4,3.2,31
			C-0.3,18.6,7.4,5.6,20,2.8c1.1-0.2,2.1-0.3,3.2-0.5c0.1,0,0.3-0.1,0.4-0.1c0.9,0,1.9,0,2.8,0c0.1,0,0.3,0.1,0.4,0.1
			c1.1,0.2,2.3,0.3,3.4,0.5c8.7,2,15.5,9.3,17,18.1c0.1,0.8,0.2,1.7,0.3,2.5C47.6,24.4,47.6,25.3,47.6,26.2z M25,4.2
			c-11.4,0-20.6,9.3-20.6,20.6c0,11.3,9.3,20.6,20.6,20.6c11.4,0,20.6-9.3,20.6-20.6C45.6,13.5,36.3,4.2,25,4.2z"/>
		<path class="st2" d="M41.7,24.2c0,0.3,0,0.4,0,0.6c0,0.6-0.4,1.1-1,1.1c-0.6,0-0.9-0.4-1-1.1c-0.1-1-0.2-2-0.3-3.1
			c-0.1-0.5-0.3-0.7-0.8-0.8c-4.5-0.6-9-1-13.5-1c-3,0-6,0.2-9,0.5c-2,0.1-3.9,0.5-5.9,0.7c-0.8,0.1-1.4-0.6-1.1-1.4
			c1.6-4.8,4.8-8.3,9.4-10.3c6.5-2.8,13.9-1.2,18.6,4C40,16.5,41.5,20.1,41.7,24.2z M11.5,18.9c4.5-0.6,9-1,13.5-1
			c4.5,0,9,0.4,13.4,1c-1.9-4.7-7-8.9-13.7-8.8C18.2,10.2,13.3,14.5,11.5,18.9z"/>
		<path class="st2" d="M22,36.8c0,1,0,2,0,3c0,1-0.5,1.4-1.5,1.1c-6.8-2.1-10.8-6.7-12.1-13.7c-0.1-0.3-0.1-0.6-0.1-1
			c0-0.6,0.3-1,0.8-1.1c0.5-0.1,1,0.3,1.1,0.8c0.1,0.4,0.2,0.9,0.2,1.4c0,0.3,0.2,0.4,0.5,0.4c1.6,0,3.3,0,4.9,0
			c2.8,0,5.1,1.7,5.9,4.3c0.2,0.6,0.3,1.3,0.3,2C22.1,35,22,35.9,22,36.8z M20.1,38.7c0-1.7,0-3.2,0-4.8c0-2.5-1.8-4.2-4.3-4.2
			c-1.4,0-2.8,0-4.3,0c-0.1,0-0.3,0-0.4,0C12.7,34.1,15.7,37.1,20.1,38.7z"/>
		<path class="st2" d="M36.9,27.8c1,0,2,0,3,0c1,0,1.4,0.5,1.1,1.5c-1.8,6-5.7,9.9-11.7,11.7c-0.8,0.2-1.4-0.1-1.4-0.9
			c0-2.2-0.1-4.4,0-6.6c0.2-3.3,2.8-5.6,6.1-5.7C35,27.8,36,27.8,36.9,27.8z M38.9,29.8c-0.2,0-0.4,0-0.5,0c-1.4,0-2.8,0-4.1,0
			c-2.6,0-4.3,1.8-4.3,4.3c0,1.4,0,2.8,0,4.1c0,0.1,0,0.3,0,0.5C34.2,37.1,37.2,34.1,38.9,29.8z"/>
		<path class="st2" d="M28.9,24.8c0,2.2-1.7,3.9-3.9,3.9c-2.2,0-3.9-1.7-3.9-3.9c0-2.2,1.7-3.9,3.9-3.9
			C27.1,20.9,28.9,22.7,28.9,24.8z M26.9,24.8c0-1.1-0.9-2-2-2c-1.1,0-2,0.9-2,2c0,1.1,0.9,2,2,2C26.1,26.8,26.9,25.9,26.9,24.8z"/>
		<path class="st2" d="M9.4,21.9c0.6,0,1,0.4,1,1c0,0.6-0.4,1.1-1,1.1c-0.5,0-1-0.5-1-1C8.4,22.3,8.8,21.9,9.4,21.9z"/>
	</g>
</g>
</svg>
